<svg id="Capa_1" data-name="Capa 1" xmlns="http://www.w3.org/2000/svg" viewBox="0 0 242.9 271.8"><defs><style>.cls-1{fill:#207f78;}.cls-2{fill:#4ad8d0;}.cls-3{fill:#22af9e;}</style></defs><title>bitqube</title><polygon class="cls-1" points="4 62.3 44.5 88.3 41.7 183 119.8 231.3 117.3 271.8 0 198.2 4 62.3"/><polygon class="cls-2" points="44.5 88.3 45.9 40.8 4 62.3 44.5 88.3"/><polygon class="cls-2" points="87.7 19.3 86.4 64.8 124.1 45.3 204.1 91.7 242.9 69.4 125.4 0 87.7 19.3"/><polygon class="cls-3" points="118.6 230.6 202.3 187.8 204.1 91.7 242.9 69.4 242.8 209.6 117.3 271.8 118.6 230.6"/><polygon class="cls-1" points="99.4 96 75.7 137.4 99.6 178.7 147.3 178.5 171.1 137.1 147.1 95.9 99.4 96"/><polygon class="cls-2" points="99.4 95.9 123.4 137.3 171.1 137 147.2 95.7 99.4 95.9"/><polygon class="cls-3" points="123.4 137.3 99.5 178.9 147.3 178.6 171.1 137 123.4 137.3"/></svg>