<svg id="Capa_1" data-name="Capa 1" xmlns="http://www.w3.org/2000/svg" viewBox="0 0 181.9 683.1"><defs><style>.cls-1{fill:#dad8da;}.cls-2{fill:#191719;}.cls-3{fill:#262426;}.cls-4{fill:#21150d;}.cls-5{fill:#94989c;}.cls-6{fill:#aaa9ac;}.cls-7{fill:#c4c2c6;}.cls-8{fill:#cecccf;}.cls-9{fill:#bc825b;}.cls-10{fill:#e8e6e8;}.cls-11{fill:#c68d66;}.cls-12{fill:#301b10;}.cls-13{fill:#b77c55;}.cls-14{fill:#ad6f44;}.cls-15{fill:#23130b;}.cls-16{fill:#a0653d;}.cls-17{fill:#c48b60;}.cls-18{fill:#af764f;}.cls-19{fill:#aa6f4f;}.cls-20{opacity:0.09;isolation:isolate;}.cls-21{fill:#301c12;}</style></defs><title>character-pensativo</title><path class="cls-1" d="M858.8,295l27.6-53.8c7.1,5.2,13.8,24.9,16.9,47.1C889,325.6,857.8,323.7,858.8,295Z" transform="translate(-858.8 -48.6)"/><path class="cls-2" d="M918.6,699.8l6.1,16.6c5.1,6.9,4.3,6,4,15.1h-41s-0.3-10.9,3.5-14.2,9.1-17.9,9.1-17.9Z" transform="translate(-858.8 -48.6)"/><path class="cls-3" d="M892.1,720.3s16.2-9.2,33.5,1.2C925.5,721.5,909.4,714.6,892.1,720.3Z" transform="translate(-858.8 -48.6)"/><rect x="28.4" y="680.1" width="42" height="3"/><path class="cls-2" d="M995.6,699.8l6.1,16.6c5.1,6.9,4.3,6,4,15.1h-41s-0.3-10.9,3.5-14.2,9.1-17.9,9.1-17.9Z" transform="translate(-858.8 -48.6)"/><path class="cls-3" d="M969.1,720.3s16.2-9.2,33.5,1.2C1002.6,721.5,986.4,714.6,969.1,720.3Z" transform="translate(-858.8 -48.6)"/><rect x="105.4" y="680.1" width="42" height="3"/><path class="cls-4" d="M1001.9,710.4l-31.4.2L948.1,421.2l-4.8.5-0.4-40.2,4,2,11-7.2,43.3,16.5C1005.5,494.9,1002.9,608.2,1001.9,710.4Z" transform="translate(-858.8 -48.6)"/><path class="cls-4" d="M893.3,710.8l31.4,1L954.9,423l4.8,0.7,1.5-40.2-4,1.9L946.4,378l-43.7,15.4C895.5,495.2,895.1,608.6,893.3,710.8Z" transform="translate(-858.8 -48.6)"/><path class="cls-1" d="M966.8,401.6c-1,1.4-23,15.2-30.1,12.5l-24-9c-7.9-3-14.9-10.1-14.9-10.1s30.3-10,31.6-9.7S966.8,401.6,966.8,401.6Z" transform="translate(-858.8 -48.6)"/><path class="cls-5" d="M932.5,231.7c-0.2-.5-7-8.7-6.9-9s0-9.7,0-9.7l60.6,2L985,229.8Z" transform="translate(-858.8 -48.6)"/><path class="cls-1" d="M992.3,227.1c2.2,3.5,37.1,14.9,37.3,15s-14.2,39.1-15.6,42.9c-11.7,30-17.1,60.7-12.7,93.8,0.6,4.1,1.3,8.1,2.1,12.1l-29.1,12.2-19,6.8-55.8-13.8c4.5-21.8,8.4-44.8,8.9-67.3,0.6-31.1-12.1-59.2-22-87.6l43.6-18,58.2,2Z" transform="translate(-858.8 -48.6)"/><path class="cls-6" d="M935.9,238c1.7-.5,12-2.4,12-2.4l7.1,19.2-18.7-5Z" transform="translate(-858.8 -48.6)"/><path class="cls-6" d="M978.3,243.4c-2-1.9-11.9-6.2-11.9-6.2L959,255.8l21-5.8Z" transform="translate(-858.8 -48.6)"/><path class="cls-7" d="M987.1,214.3l-20.7,22.8,17.8,27c1,1.5,12.3-35.2,12.3-35.2Z" transform="translate(-858.8 -48.6)"/><path class="cls-8" d="M951.5,412.2h0Z" transform="translate(-858.8 -48.6)"/><path class="cls-9" d="M939.4,226.8s2.9,0.1,4.2-4.3l30.3-.4s2.4,3.2,3.8,2.7l-10.7,12L959.2,256l-4.1-1.3Z" transform="translate(-858.8 -48.6)"/><polygon class="cls-10" points="97.6 207.4 100.3 215.2 99.6 360.2 95.1 361.3 96.2 206.1 97.6 207.4"/><circle class="cls-8" cx="956.7" cy="272.4" r="1.4" transform="translate(-863.8 -30.5) rotate(-1.1)"/><circle class="cls-8" cx="956.9" cy="284.6" r="1.4" transform="translate(-864 -30.5) rotate(-1.1)"/><circle class="cls-8" cx="957.2" cy="298.2" r="1.4" transform="translate(-864.2 -30.5) rotate(-1.1)"/><polygon class="cls-9" points="100.5 215.6 100.3 207.4 96.2 206.1 100.5 215.6"/><path class="cls-7" d="M926.4,213.5l21.5,22-16.8,27.7c-0.9,1.5-13.6-34.7-13.6-34.7Z" transform="translate(-858.8 -48.6)"/><polygon class="cls-9" points="111.4 181.7 85.9 181.7 85.9 152.2 114.8 152.2 114.8 177.4 111.4 181.7"/><path class="cls-8" d="M903.3,291.6c3.1,12,5.2,24.3,4.9,37.1-0.4,22.5-4.4,45.5-8.9,67.3,0,0,6.1,9.3,28.3,14.5v-5.7c-7.7-7.4-6.1-20.2-11.9-18.8s-7.4-3.1-6.1-11.8,4.8-51.9,2.7-68.1-11.5-38.5-11-32.6" transform="translate(-858.8 -48.6)"/><path class="cls-8" d="M1020.2,277.4a15.4,15.4,0,0,1-.7-8.7c1.3-5.8-15.6,18-21.6,34s-5,55.3-5,64a38.3,38.3,0,0,0,1.5,10c0.4,7.4-1.7,14.2-4.9,20.6,10-3.1,13.7-7.1,13.7-7.1-1.2-22.3-1.7-45.5,1.2-67.9a132.2,132.2,0,0,1,8.4-31.4,18,18,0,0,0-.8-2.1C1009.6,283.1,1015.1,279.3,1020.2,277.4Z" transform="translate(-858.8 -48.6)"/><path class="cls-11" d="M910.7,87.1L924.2,196s33.4,34.2,65.6,3.9l18.7-101.4-0.5-2.1a1.8,1.8,0,0,0-.5-2C998,86,947.5,45.1,910.7,87.1Z" transform="translate(-858.8 -48.6)"/><path class="cls-9" d="M941.3,90.3s26.8,30.3,48.7,10.6l6,24L997.2,95Z" transform="translate(-858.8 -48.6)"/><path class="cls-12" d="M916.3,139.6L923.8,93l-3-3.3s7.6-10.6,40.6,11.7c0,0,20.2,7.9,30-5.5l8.5,53,8.9-51.4s-3.5-16.6-11.6-19.4c0,0-5.2,1.6-6.1-.5,0,0,.6-17.3-33-24.3,0,0,2,2.2.9,3.1s-16.1-8.6-29.5-7.7c0,0,6.6,16.9,1.5,15.4,0,0-.9-3.1.2-5.1,0,0-22.2,16.4-21.6,28.7Z" transform="translate(-858.8 -48.6)"/><path class="cls-11" d="M1001,136.3s11.8-7.8,4.8,13c0,0-3.4,11.2-9.1,11.6Z" transform="translate(-858.8 -48.6)"/><path class="cls-11" d="M915.9,128.8s-11.1-9.9-5.8,12.1c0,0,3.6,11.8,9.2,13.2Z" transform="translate(-858.8 -48.6)"/><path class="cls-13" d="M999.6,138.8l-13.3,46.9s-2.4,9.1-4.5,6.3,1.7-17.2-14.6-16.4l-6.4.3h-2.3c-1.9-.3-5.2-0.9-11-2.2-16.2-3.6-13.5,11.3-15.7,13.8s-4.8-3.7-4.8-3.7l-9-52.2-1.2,3.1,2,19.1,5,42.1c19,17.4,32.4,16.1,32.4,16.1s15.1,4,33.7-12.2l7.4-39.1,3.4-18.6Z" transform="translate(-858.8 -48.6)"/><polygon points="144 91.3 140.2 91 141.5 84.1 144.2 84.3 144 91.3"/><path class="cls-14" d="M948.4,162.2a11.5,11.5,0,0,0,3.1,3.7,7.4,7.4,0,0,0,4,1.4h2.2l2.3-.2,2.4-.4a19,19,0,0,1,2.5-.3,14.9,14.9,0,0,1-2,1.5,9.7,9.7,0,0,1-2.3,1.1,11.7,11.7,0,0,1-2.5.7,12.9,12.9,0,0,1-2.8.1,7.6,7.6,0,0,1-5.2-2.5A8.1,8.1,0,0,1,948.4,162.2Z" transform="translate(-858.8 -48.6)"/><path class="cls-15" d="M968.1,109.9s16.9-1.2,24.4,7.4C992.5,117.3,979.7,97.7,968.1,109.9Z" transform="translate(-858.8 -48.6)"/><path class="cls-15" d="M948.5,120.7s-12-6.5-24.4.1C924,120.7,935.2,106.3,948.5,120.7Z" transform="translate(-858.8 -48.6)"/><path d="M964.7,129.6v2l-11.5-1v-2l-36.7-2.2h-1l-0.2,6.1,3.1,0.3L919,144c0.9,5.2,7.1,6.7,7.1,6.7l18.9,1.7c3.1,0.3,7.6-5.5,7.6-5.5l0.5-13.2,11.5,1V148c0.9,5.2,6.6,6.7,6.6,6.7l18.9,1.7c6.3,0.6,8.6-6.4,8.6-6.4l1.6-16Zm-15.2,14s-1.3,6-6.5,5.6l-17.9-1.6s-4-1.6-3.9-5.5l-0.6-13.3,29.4,1.6Zm46,5.1c0.1,3.3-3.2,4.3-3.2,4.3l-19-1.1a6.7,6.7,0,0,1-6.1-5l0.5-14.8,29.3,3.6Z" transform="translate(-858.8 -48.6)"/><path class="cls-15" d="M981.2,140.8c-0.1,2.6-2.2,1.7-4.8,1.5s-4.8.3-4.7-2.3a4.4,4.4,0,0,1,4.9-4.3A5,5,0,0,1,981.2,140.8Z" transform="translate(-858.8 -48.6)"/><path class="cls-15" d="M937.2,137.2c-0.1,2.6-2.2,1.7-4.8,1.5s-4.8.3-4.7-2.3a4.4,4.4,0,0,1,4.9-4.3A5.1,5.1,0,0,1,937.2,137.2Z" transform="translate(-858.8 -48.6)"/><path class="cls-16" d="M943.1,188.6a54.3,54.3,0,0,1,7-.1l6.9,0.4,6.9,0.8a56.3,56.3,0,0,1,6.9,1.4,54.3,54.3,0,0,1-7,.1l-6.9-.4L950,190C947.7,189.6,945.4,189.2,943.1,188.6Z" transform="translate(-858.8 -48.6)"/><path class="cls-17" d="M922.8,247.1s9.8-7,12-8.2c0,0,9.1,2.3,16.6,1.1s16-6.5,16-9.3a4.2,4.2,0,0,0-1.9-3.8s3-6.3-1.5-7.8c0,0,4.5-6.1-1.2-8.2a33.8,33.8,0,0,1,7.4-5.8c4.5-2.6,12.3-6,10.8-10.3-0.9-2.5-4-4.8-16.1,4s-18.9,13-21,13.4-4.6-1.1-3.6-3.4,2.2-7.8,1.5-11.2-4.5-6-6.7-4.2-2.8,4.8-2.7,9.8-12.2,18.7-8.8,27.1c0,0,1.9,12.1-4,13.5C919.4,243.8,920.5,244.7,922.8,247.1Z" transform="translate(-858.8 -48.6)"/><path class="cls-17" d="M951.9,220.8c-1.6-2.7.2-5.1,7.9-9.5s9.3-3.2,10.9-.5-0.8,6.1-7.4,9.2S953.5,223.6,951.9,220.8Z" transform="translate(-858.8 -48.6)"/><path class="cls-17" d="M954.9,227.7c-0.8-2.2,2.4-5.1,8.6-8.4s7.5-2.4,9.2.3-3.4,6.3-7.7,8.1S956.1,230.9,954.9,227.7Z" transform="translate(-858.8 -48.6)"/><path class="cls-17" d="M955.1,231.5c0-2.5,3.1-3.6,10.7-4.5,5.3-.7,6,1.4,6.1,3.5s-5.1,5.1-9.8,5.2S955.1,234,955.1,231.5Z" transform="translate(-858.8 -48.6)"/><path class="cls-18" d="M957.3,230.9l6-2.8C963.2,228.1,959.1,231,957.3,230.9Z" transform="translate(-858.8 -48.6)"/><path class="cls-18" d="M954.6,223.8s4.4-3.2,6.6-3.7A62.7,62.7,0,0,1,954.6,223.8Z" transform="translate(-858.8 -48.6)"/><path class="cls-19" d="M941.6,197.6c0.7,3.4-.5,8.8-1.5,11.2a2.3,2.3,0,0,0,1.1,3.1,2.2,2.2,0,0,1,0-2.1c1-2.4,2.2-7.8,1.5-11.2a6.9,6.9,0,0,0-2.4-3.8A6.6,6.6,0,0,1,941.6,197.6Z" transform="translate(-858.8 -48.6)"/><path class="cls-19" d="M981.9,195.8a3.1,3.1,0,0,0-1.4-1.8l0.4,0.8c1.5,4.3-6.3,7.7-10.8,10.3a38.4,38.4,0,0,0-5,3.6,5.8,5.8,0,0,1,2.7-.4,31.5,31.5,0,0,1,3.3-2.2C975.6,203.5,983.4,200.1,981.9,195.8Z" transform="translate(-858.8 -48.6)"/><path class="cls-17" d="M863.9,313.1h0c-3.8-3.2-6.2-11.2-3-15l62-70,12.4,11L880,314.8C876.7,318.6,867.7,316.4,863.9,313.1Z" transform="translate(-858.8 -48.6)"/><path class="cls-1" d="M1029.2,242.1l3.8,42.3a265.4,265.4,0,0,0-29.3,18.7c-2.5-22-4.5-44.1-6.8-66.2Z" transform="translate(-858.8 -48.6)"/><path class="cls-1" d="M1039.9,290.8s-5-1.6-4.3-5.8-5.8-.9-5.8-0.9L1001,295.6s-1.5,4.9.1,5.4,4.3,4,3.4,4.7,1.7,2.3,1.7,2.3l33.7-15.3C1039.9,292.6,1041.6,291.3,1039.9,290.8Z" transform="translate(-858.8 -48.6)"/><path class="cls-8" d="M1035.6,287.4s-30.8,16-32.5,14" transform="translate(-858.8 -48.6)"/><path class="cls-8" d="M1038.5,290.3s-15.2,8.4-16.1,7.3" transform="translate(-858.8 -48.6)"/><path class="cls-20" d="M912.6,323.9s22.7,7,29.7-5.1c0,0,41.4,19.9,60.6,17l0.7-8.4-66.4-18.8L907,318.4C907.1,318.5,908.1,323.9,912.6,323.9Z" transform="translate(-858.8 -48.6)"/><path class="cls-17" d="M988.9,329.9c-12.4,0-32.3-8.1-49.5-14.1l8.1-14.1c27.3,14.1,67.2,15.6,68.7,13.1s0.9-8.6.9-8.6l-1.9-2.5,16.2-7.1c3.1,4.2,7.3,18,2,27.3C1026.4,336.1,1022.2,334,988.9,329.9Z" transform="translate(-858.8 -48.6)"/><path class="cls-17" d="M959.6,306.9c-5.4.1-7.1-3.2-12.1-5.2,0,0-3.2-6.5-5.4-10.7s-1.7-9.1-2.7-12.5c-2-7.1-5-7.1-6.1-7.1-3.9,0-2.3,5.6-2,12.1s1,2.8-.9,4.9-7.1,3.7-11.7,2.9-14.9,4.9-10.7,12.9,5.2,15,7.3,16.4,23.5,1.3,26.9-6.7c0,0,13.8,4.4,14.6,4.8S959.6,306.9,959.6,306.9Z" transform="translate(-858.8 -48.6)"/><path class="cls-17" d="M939.9,307.4s-10.5-.6-12-11.5C927.9,295.9,925.4,306.2,939.9,307.4Z" transform="translate(-858.8 -48.6)"/><path class="cls-17" d="M929.2,311.3s0.5-4.2,3.2-5.3A47.1,47.1,0,0,0,929.2,311.3Z" transform="translate(-858.8 -48.6)"/><path class="cls-17" d="M920.3,296.1c0.3-1.6.9-5-6.7-6.6s-10.6-1.2-11.2,2.5,0.8,5.3,7.5,6.6S919.8,299,920.3,296.1Z" transform="translate(-858.8 -48.6)"/><path class="cls-17" d="M920.2,303.4c0.3-3.1-2.3-4.6-11.4-5.4s-10,1-10.3,4.2,3.3,5.3,10.8,5.3S919.9,306.7,920.2,303.4Z" transform="translate(-858.8 -48.6)"/><path class="cls-17" d="M921,310.1c-0.4-2.3-4.7-3.3-11.8-3s-7.8,1.7-7.9,4.9,6.2,3.8,10.9,3.3S921.6,313.5,921,310.1Z" transform="translate(-858.8 -48.6)"/><path class="cls-17" d="M924.1,316.9c-0.5-2.4-3.8-2.9-11.6-2.3-5.4.4-5.6,2.7-5.4,4.7s6.1,4,10.8,3.2S924.6,319.4,924.1,316.9Z" transform="translate(-858.8 -48.6)"/><path class="cls-17" d="M919.9,292.1v3.3a1.4,1.4,0,0,1-.2.6,1.7,1.7,0,0,0-.2.5l-0.2.2-0.2.2-0.4.4a0.4,0.4,0,0,0-.2.2l-0.3.2-0.3.2h-0.3l-0.6.2-0.6.2-0.6.2h-1.4l1.7,0.6,1.6,0.8a6.9,6.9,0,0,1,1.3,1.1,3.5,3.5,0,0,1,.6,1.4v0.8a1.4,1.4,0,0,1-.2.7,4.1,4.1,0,0,1-1,1.3l-0.7.5-0.8.5-0.8.4-0.9.4h0l1.5,0.5,1.5,0.6,1.3,0.7,0.5,0.4,0.3,0.5h0v0.3a1.4,1.4,0,0,1-.2.6l-0.8,1.2a16.9,16.9,0,0,1-2.5,2h0l2.2,0.3,2,0.5,0.5,0.2,0.4,0.2,0.4,0.3,0.4,0.3,0.3,0.3a1244031286395.9,1244031286395.9,0,0,0,.4.4l0.3,0.4,0.3,0.5a1.3,1.3,0,0,0,.1-0.6v-0.6c-0.1-.2-0.1-0.4-0.2-0.6a0.5,0.5,0,0,0-.2-0.3l-0.2-.3a1,1,0,0,0-.5-0.4l-0.5-.3-0.6-.2-0.6-.2-1.1-.2H918l-1.1.3h0l0.8-.2,0.8-.3,0.7-.4,0.7-.5a4.9,4.9,0,0,0,1.2-1.3,1.6,1.6,0,0,0,.3-0.9v-0.5h0a0.4,0.4,0,0,0-.1-0.3,4.1,4.1,0,0,0-.5-0.9l-0.7-.6-1.6-.7a8.6,8.6,0,0,0-1.7-.3,9.7,9.7,0,0,0-1.7,0h0a6.3,6.3,0,0,0,1.9-.3l0.9-.3,0.9-.5a3.4,3.4,0,0,0,1.4-1.5,4.2,4.2,0,0,0,.4-1,4.3,4.3,0,0,1,.1-0.5v-0.5a2.3,2.3,0,0,0-.3-1.1,2.4,2.4,0,0,0-.6-0.9,6.6,6.6,0,0,0-1.7-1.2,5.9,5.9,0,0,0-1.9-.5h0.9l0.7-.2h0.6l0.3-.2,0.3-.2,0.3-.2,0.3-.3,0.3-.3,0.2-.3a1.5,1.5,0,0,0,.3-0.7,1.9,1.9,0,0,0,.2-0.7c0-.2.1-0.5,0.1-0.7a1.7,1.7,0,0,0-.1-0.7,1.9,1.9,0,0,0-.2-0.7l-0.3-.6C920.2,292.4,920.1,292.2,919.9,292.1Z" transform="translate(-858.8 -48.6)"/><path class="cls-17" d="M916,314.7l-6.7.6S914.4,315.7,916,314.7Z" transform="translate(-858.8 -48.6)"/><path class="cls-17" d="M914.8,307.2s-5.5-.5-7.7.1C907.1,307.2,913.2,307.4,914.8,307.2Z" transform="translate(-858.8 -48.6)"/><path class="cls-17" d="M914.1,298.6s-5.9-1.1-8-.7C906,297.9,912.8,298.8,914.1,298.6Z" transform="translate(-858.8 -48.6)"/><path class="cls-17" d="M917.6,296.7a7.5,7.5,0,0,0,1.3-1.8,3,3,0,0,0-.4-2.6,0.1,0.1,0,1,1,.2-0.1,3.1,3.1,0,0,1-1,4.8S917.5,296.8,917.6,296.7Z" transform="translate(-858.8 -48.6)"/><path class="cls-17" d="M917.3,301.6c-0.1-.1,0-0.2.1-0.2a2.2,2.2,0,0,1,.1,4.2c-0.1,0-.2-0.1-0.1-0.2a4.9,4.9,0,0,0,1.1-1.8A2.1,2.1,0,0,0,917.3,301.6Z" transform="translate(-858.8 -48.6)"/><path class="cls-17" d="M918.2,309.2a1.8,1.8,0,0,1,.6,3.1c-0.1.1-.2,0-0.2-0.1a7,7,0,0,0,.3-1.4,1.4,1.4,0,0,0-.9-1.3C917.9,309.4,918.1,309.1,918.2,309.2Z" transform="translate(-858.8 -48.6)"/><path class="cls-17" d="M920.6,315.7c2.1,0.1,3.1,3.3,1.4,4.5-0.1.1-.2,0-0.1-0.1a2.7,2.7,0,0,0-1.4-4.1A0.2,0.2,0,0,1,920.6,315.7Z" transform="translate(-858.8 -48.6)"/><path class="cls-18" d="M919.6,301.2l-6.6-.6S918,300.2,919.6,301.2Z" transform="translate(-858.8 -48.6)"/><path class="cls-18" d="M918.3,308.6s-5.4.5-7.6-.1C910.8,308.5,916.8,308.4,918.3,308.6Z" transform="translate(-858.8 -48.6)"/><rect class="cls-21" x="905.7" y="691.2" width="6" height="35" transform="translate(-703.6 1531.9) rotate(-87.1)"/><rect class="cls-21" x="110.5" y="656.1" width="35" height="6"/></svg>