<svg id="Capa_1" data-name="Capa 1" xmlns="http://www.w3.org/2000/svg" viewBox="0 0 178.5 685.1"><defs><style>.cls-1{fill:#191719;}.cls-2{fill:#262426;}.cls-3{fill:#21150d;}.cls-4{fill:#dad8da;}.cls-5{fill:#94989c;}.cls-6{fill:#aaa9ac;}.cls-7{fill:#c4c2c6;}.cls-8{fill:#cecccf;}.cls-9{fill:#bc825b;}.cls-10{fill:#e8e6e8;}.cls-11{fill:#c68d66;}.cls-12{fill:#301b10;}.cls-13{fill:#b77c55;}.cls-14{fill:#ad6f44;}.cls-15{fill:#23130b;}.cls-16{fill:#c48b60;}.cls-17{fill:#d39e7a;}.cls-18{fill:#aa6f4f;}.cls-19{fill:#301c12;}.cls-20{opacity:0.09;isolation:isolate;}.cls-21{fill:#af764f;}</style></defs><title>character-sorprendido</title><path class="cls-1" d="M389.5,699.8l6.1,16.6c5.1,6.9,4.3,6,4,15.2H358.5s-0.3-10.9,3.5-14.2c4-1.8,9.1-17.9,9.1-17.9Z" transform="translate(-336.8 -46.6)"/><path class="cls-2" d="M363,720.3s16.2-9.2,33.5,1.2C396.5,721.5,380.3,714.6,363,720.3Z" transform="translate(-336.8 -46.6)"/><rect x="21.4" y="682.1" width="42.1" height="3"/><path class="cls-1" d="M455.7,699.8l6.1,16.6c5.1,6.9,4.3,6,4,15.2H424.7s-0.3-10.9,3.5-14.2c4-1.8,9.1-17.9,9.1-17.9Z" transform="translate(-336.8 -46.6)"/><path class="cls-2" d="M429.1,720.3s16.2-9.2,33.5,1.2C462.6,721.5,446.5,714.6,429.1,720.3Z" transform="translate(-336.8 -46.6)"/><rect x="87.5" y="682.1" width="42.1" height="3"/><path class="cls-3" d="M461.2,710.4l-31.2.2L407.8,423.5l-4.7.5-0.4-39.9,4,2,10.9-7.1,42.9,16.4C464.8,496.6,462.2,609.1,461.2,710.4Z" transform="translate(-336.8 -46.6)"/><path class="cls-3" d="M364.4,711.8h31.2L415,424.4l4.7,0.5V385l-3.9,2-10.9-7-44.7,16.8C356.8,498.1,362.4,610.4,364.4,711.8Z" transform="translate(-336.8 -46.6)"/><path class="cls-4" d="M426.4,404.1c-1,1.4-22.8,15-29.8,12.4l-23.8-8.9c-7.9-2.9-14.7-10-14.7-10s30.1-9.9,31.3-9.7S426.4,404.1,426.4,404.1Z" transform="translate(-336.8 -46.6)"/><path class="cls-5" d="M392.4,235.6c-0.2-.5-6.9-8.6-6.8-8.9s0-9.6,0-9.6l60.1,1.9-1.2,14.7Z" transform="translate(-336.8 -46.6)"/><path class="cls-4" d="M451.7,231.1c2.2,3.5,40.5,15.8,40.7,15.8s-17.7,37.8-19.2,41.6c-11.6,29.7-17,60.2-12.6,93,0.5,4,1.3,8,2.1,12l-28.9,12.1L415,412.3l-55.4-13.7c4.4-21.7,8.4-44.4,8.8-66.7,0.6-30.9-12-58.7-21.8-86.9l43.2-17.9,57.7,2Z" transform="translate(-336.8 -46.6)"/><path class="cls-6" d="M395.8,241.8c1.6-.5,11.9-2.4,11.9-2.4l7.1,19-18.5-4.9Z" transform="translate(-336.8 -46.6)"/><path class="cls-6" d="M437.8,247.2c-2-1.9-11.8-6.2-11.8-6.2l-7.3,18.4,20.8-5.8Z" transform="translate(-336.8 -46.6)"/><path class="cls-7" d="M446.5,218.4L426,241l17.7,26.8c1,1.5,12.2-34.9,12.2-34.9Z" transform="translate(-336.8 -46.6)"/><path class="cls-8" d="M411.2,414.6h0Z" transform="translate(-336.8 -46.6)"/><path class="cls-9" d="M399.2,230.7s2.9,0.1,4.1-4.2l30-.4s2.4,3.1,3.8,2.7l-10.6,11.9-7.7,19-4.1-1.3Z" transform="translate(-336.8 -46.6)"/><polygon class="cls-10" points="79.3 213.1 82 220.8 81.3 364.6 76.8 365.8 77.9 211.8 79.3 213.1"/><circle class="cls-8" cx="416.4" cy="275.9" r="1.3" transform="translate(-341.9 -38.7) rotate(-1.1)"/><circle class="cls-8" cx="416.7" cy="288.1" r="1.3" transform="translate(-342.2 -38.7) rotate(-1.1)"/><circle class="cls-8" cx="416.9" cy="301.6" r="1.3" transform="translate(-342.4 -38.7) rotate(-1.1)"/><polygon class="cls-9" points="82.2 221.2 82 213.1 77.9 211.8 82.2 221.2"/><path class="cls-7" d="M386.4,217.6l21.3,21.8L391,266.9c-0.9,1.5-13.5-34.4-13.5-34.4Z" transform="translate(-336.8 -46.6)"/><polygon class="cls-9" points="93 187.6 67.7 187.6 67.7 158.4 96.3 158.4 96.3 183.3 93 187.6"/><path class="cls-11" d="M366.5,89.1l18.2,113.2s36.2,32.8,68.7-2L469.1,91.9l-0.6-2.2a1.7,1.7,0,0,0-.6-2C457.7,79.9,403.3,41.5,366.5,89.1Z" transform="translate(-336.8 -46.6)"/><path class="cls-9" d="M398.7,89.6S427.8,119,450,96.2l7.2,24.7,0.2-31.5Z" transform="translate(-336.8 -46.6)"/><path class="cls-12" d="M374.4,143.8l6.1-49.6L377.3,91s7.5-11.8,42.9,8.6c0,0,21.5,6.4,31.1-8.6l10.9,54.9L469.6,91s-4.3-17.2-12.9-19.3c0,0-5.4,2.1-6.4,0,0,0,0-18.2-35.4-22.5,0,0,2.1,2.1,1.1,3.2s-17.2-7.5-31.1-5.4c0,0,7.5,17.2,2.1,16.1,0,0-1.1-3.2,0-5.4,0,0-22.5,19.3-21.5,32.2Z" transform="translate(-336.8 -46.6)"/><path class="cls-11" d="M462.8,132.4s12-9.3,5.5,13.2c0,0-3.1,12.1-9.1,13Z" transform="translate(-336.8 -46.6)"/><path class="cls-11" d="M373.5,132.5s-12-9.3-5.6,13.2c0,0,4.2,12.1,10.1,13Z" transform="translate(-336.8 -46.6)"/><path class="cls-13" d="M461.4,135.3l-11.4,54s-2.8,6.3-5.1,3.4,1.1-18.2-15.9-15.9l-6.7.9a0.1,0.1,0,0,1-.1-0.1h0l-2.3.3c-2-.1-5.5-0.4-11.6-1.3-17.1-2.3-13.7,13.1-15.9,15.9s-5.1-3.4-5.1-3.4l-11.6-53.9-1.1,3.4,2.8,19.9,6.8,43.8c20.5,16.5,34.4,13.9,34.4,13.9s15.9,2.8,34.7-15.9l6.3-41.8,2.8-19.9Z" transform="translate(-336.8 -46.6)"/><polygon points="128 89.5 124 89.5 125.1 82.1 128 82.1 128 89.5"/><path class="cls-14" d="M409.9,165.4a10.8,10.8,0,0,0,3.4,3.6,7.9,7.9,0,0,0,4.3,1.1H420l2.4-.5,2.5-.6a19.8,19.8,0,0,1,2.6-.6,18.1,18.1,0,0,1-2.1,1.8l-2.4,1.4-2.6,1a14.3,14.3,0,0,1-2.9.3,7.9,7.9,0,0,1-5.5-2.1A6.9,6.9,0,0,1,409.9,165.4Z" transform="translate(-336.8 -46.6)"/><path class="cls-15" d="M431.1,108s17.3,4.2,21.6,15.2C452.8,123.2,447.3,99.7,431.1,108Z" transform="translate(-336.8 -46.6)"/><path class="cls-15" d="M406.7,107.9s-14-1.4-23.4,10.4C383.3,118.3,388.6,99.4,406.7,107.9Z" transform="translate(-336.8 -46.6)"/><path class="cls-8" d="M363.5,295a136.7,136.7,0,0,1,4.9,36.8c-0.4,22.4-4.4,45.1-8.8,66.7,0,0,6,9.2,28.1,14.3v-5.7c-7.6-7.3-6.1-20.1-11.8-18.6s-7.3-3.1-6.1-11.7,4.7-51.5,2.7-67.5S361,271.2,361.5,277" transform="translate(-336.8 -46.6)"/><path class="cls-8" d="M476.3,283.9c-3-2-2.6-4.6-5-3s-4,6.1-8.3,21.7-7.3,58.5-7.3,67.2c0,4.5-.6,7.7-1.9,9.6,0.4,7.3-1.7,14.1-4.9,20.4,9.9-3,13.6-7.1,13.6-7.1-1.2-22.1-1.7-45.1,1.2-67.3a125.4,125.4,0,0,1,8.4-31.1c-0.2-.7,1.5-1.4,1.2-2.1C472.5,289.4,473.8,290.3,476.3,283.9Z" transform="translate(-336.8 -46.6)"/><path d="M424.6,128.8v2.1H412.5v-2.1l-38.4,1.1H373v6.4h3.3l1.1,11.8c1.1,5.4,7.7,6.4,7.7,6.4h19.8c3.3,0,7.7-6.4,7.7-6.4v-14h12.1l0.5,14c1.1,5.4,7.2,6.4,7.2,6.4h19.8c6.6,0,8.8-7.5,8.8-7.5l1.1-17Zm-15.4,16.1s-1.1,6.4-6.6,6.4H383.9s-4.2-1.3-4.3-5.4l-1.1-14,30.8-1.1v14.1h0Zm48.4,1.1c0.2,3.5-3.2,4.8-3.2,4.8l-19.9.6a6.5,6.5,0,0,1-6.6-4.7V131l30.8,1.1Z" transform="translate(-336.8 -46.6)"/><circle class="cls-15" cx="104.5" cy="92.1" r="5"/><circle class="cls-15" cx="61.4" cy="92.1" r="5"/><path class="cls-15" d="M432.8,193.3c0,3-5.2,1.4-12.4,1.4s-13.8,1.7-13.8-1.4,5.9-5.5,13.1-5.5S432.8,190.3,432.8,193.3Z" transform="translate(-336.8 -46.6)"/><path class="cls-4" d="M336.8,256.7l27.8,61.4a260.8,260.8,0,0,1,34.4,1.7c-8.6-20.2-17.8-40.2-26.7-60.3Z" transform="translate(-336.8 -46.6)"/><path class="cls-4" d="M361.9,327.1s3.6-3.8.8-7.1,4.6-3.7,4.6-3.7l30.5-4.3s3.7,3.4,2.6,4.7-1.7,5.6-.7,5.7-0.3,2.9-.3,2.9l-36.6,3.4S360.7,328.4,361.9,327.1Z" transform="translate(-336.8 -46.6)"/><path class="cls-8" d="M364,322.1s34.4-1.3,34.9-4" transform="translate(-336.8 -46.6)"/><path class="cls-8" d="M362.8,326s17.2-.3,17.5-1.6" transform="translate(-336.8 -46.6)"/><polygon class="cls-4" points="0.3 206.3 9.3 198.3 35.4 206.3 24.4 224.3 13.3 224.3 0 210.1 0.3 206.3"/><path class="cls-16" d="M400.9,253.4s3.2-9.1,3.8-11.5c0,0-5.8-2.1-9.1-6.6s-4.1-10.8-9.6-13.8-7.1-4.4-5.3-6.3,7.8-2.9,10.6-.7,4.6,8,7.1,7.9,3.2-5.4,3.1-12.1-6.2-27.3,1.3-28.6c5.9-1,5.8,14.6,5.6,18.3s0.8,9.5,1.9,9.8,3.1-7.9,3.7-12-0.3-17.1,6-17.4,3,16.3,1.9,20.4-1.8,9.9-.5,10.6,6.8-7.8,8-10.9,3.9-13.4,8.9-11.7-0.8,13.4-3.9,18.1-5.2,8.9-4.7,9.5,6-4.4,8.3-7.3,6-7.8,8.7-6.5,0.2,6.5-7,14.2-9.2,12.3-10.3,15.3-3.3,13.2-12.4,11.7c0,0-3.8,8.7-3.8,12.1A98.1,98.1,0,0,1,400.9,253.4Z" transform="translate(-336.8 -46.6)"/><path class="cls-17" d="M381.7,218.9a2.7,2.7,0,0,0,2.6-.3c1.6-1,2.8,1.8,2.7,2.2s-1.5.7-1.5,0.7A14.6,14.6,0,0,1,381.7,218.9Z" transform="translate(-336.8 -46.6)"/><path class="cls-16" d="M413.3,243.7a9.5,9.5,0,0,0-3.7-.8l-2.3-.4a8.8,8.8,0,0,0-1.5-.5,0.1,0.1,0,0,0-.1.1c0.4,0.9,2.2,1.1,3,1.2a36.2,36.2,0,0,0,4.6.6S413.4,243.7,413.3,243.7Z" transform="translate(-336.8 -46.6)"/><path class="cls-16" d="M403.8,222.3s11.1,0.7,9,11.5C412.8,233.8,413.1,225.9,403.8,222.3Z" transform="translate(-336.8 -46.6)"/><path class="cls-16" d="M421.9,227.7s-5.5,1.2-7.8,3.8A6.6,6.6,0,0,1,421.9,227.7Z" transform="translate(-336.8 -46.6)"/><path class="cls-16" d="M419.8,226.4c-1.2-1.7-3.8-2.5-5.7-3.2s-4.8-1.8-6.5-3.7c-0.1-.2-0.4,0-0.3.2a13.4,13.4,0,0,0,5.4,3.7l3.4,1.4c1.2,0.5,2.2,1.3,3.4,1.8S419.9,226.5,419.8,226.4Z" transform="translate(-336.8 -46.6)"/><path class="cls-18" d="M421.9,200.9c-1.1,4.2-1.8,9.9-.5,10.6s0.8-.2,1.5-0.8,0.1-6.4,1-9.8,4.4-20.8-1.9-20.4h-0.9C425.8,182.2,422.9,197,421.9,200.9Z" transform="translate(-336.8 -46.6)"/><path class="cls-18" d="M438.2,188.9c5,1.7-.8,13.4-3.9,18.1s-5.2,8.9-4.7,9.5,1-.3,2.1-1.2a43.9,43.9,0,0,1,4.6-8.3c3.1-4.7,8.8-16.4,3.9-18.1a2.8,2.8,0,0,0-2,0h0Z" transform="translate(-336.8 -46.6)"/><path class="cls-18" d="M408.3,200.1c-0.2,3.7.8,9.5,1.9,9.8s0.7-.5,1.1-1.4a24.3,24.3,0,0,1-1-8.3c0.2-3.7.3-19.4-5.6-18.3h-0.5C408.6,183.6,408.5,196.7,408.3,200.1Z" transform="translate(-336.8 -46.6)"/><rect class="cls-19" x="25.4" y="659.1" width="35.1" height="6"/><rect class="cls-19" x="91.5" y="658.1" width="35.1" height="6"/><path class="cls-4" d="M491.9,246.9l13.4,44.5a271.4,271.4,0,0,0-26.9,26.7c-7.5-23.1-14.5-46.4-21.8-69.6Z" transform="translate(-336.8 -46.6)"/><path class="cls-4" d="M514,296.9s-5.7-.6-5.8-5.3-6.4.3-6.4,0.3l-28,18.8s-0.6,5.6,1.3,5.8,5.4,3.4,4.7,4.2,2.3,2.1,2.3,2.1l32.4-24C514.4,298.8,515.8,297.1,514,296.9Z" transform="translate(-336.8 -46.6)"/><path class="cls-8" d="M508.6,294.2s-29.1,24.1-31.5,22.3" transform="translate(-336.8 -46.6)"/><path class="cls-8" d="M512.4,296.6s-14.3,12.4-15.5,11.5" transform="translate(-336.8 -46.6)"/><path class="cls-20" d="M386.2,360.9s25.6,2.5,30.4-12.1c0,0,24.6,12.9,44.3,5.5l1-10L409,339.1l-29.9,17.3S381.5,362,386.2,360.9Z" transform="translate(-336.8 -46.6)"/><path class="cls-16" d="M468.4,350.3c-13.2,2.8-36.1-1.4-55.6-4.1l5.4-17c32.1,9.1,74.8,1.7,75.8-1.3s-0.9-9.4-.9-9.5l-2.6-2.2,17.2-12.8c4.3,3.8,10,19.3,6.5,30.5C509.6,348.5,504.7,347.2,468.4,350.3Z" transform="translate(-336.8 -46.6)"/><path class="cls-16" d="M432.3,332.1c-5.7,1.3-8.2-1.9-14-2.9,0,0-4.8-6.3-8.1-10.3s-3.8-9.3-5.6-12.8c-3.7-7.1-6.9-6.5-8-6.2-4.1.9-1.2,6.5,0.5,13.5s1.7,2.8.1,5.4-6.7,5.6-11.8,5.7-14.7,8.6-8.5,16.3,8.8,14.9,11.4,15.9,25.3-3.8,27.1-13.2l16.5,1.9C432.9,345.6,432.3,332.1,432.3,332.1Z" transform="translate(-336.8 -46.6)"/><path class="cls-16" d="M411.5,337.1s-11.3,1.7-15.3-9.7C396.2,327.4,395.9,339,411.5,337.1Z" transform="translate(-336.8 -46.6)"/><path class="cls-16" d="M401,343.6s-0.4-4.6,2.2-6.4C403.2,337.2,401.4,342,401,343.6Z" transform="translate(-336.8 -46.6)"/><path class="cls-16" d="M388.2,329.3c-0.1-1.8-.2-5.6-8.5-5.6s-11.5,1.1-11.4,5.2,2.1,5.6,9.4,5.4S388.3,332.5,388.2,329.3Z" transform="translate(-336.8 -46.6)"/><path class="cls-16" d="M389.7,337.2c-0.4-3.4-3.5-4.4-13.3-3.2s-10.4,3.3-10,6.8,4.7,4.9,12.6,3.2S390.1,340.8,389.7,337.2Z" transform="translate(-336.8 -46.6)"/><path class="cls-16" d="M392.1,344.2c-0.9-2.4-5.7-2.5-13.2-.6s-7.9,3.6-7.3,7,7.4,2.7,12.3,1.1S393.4,347.7,392.1,344.2Z" transform="translate(-336.8 -46.6)"/><path class="cls-16" d="M396.8,350.9c-1.1-2.5-4.7-2.3-12.8.1-5.6,1.7-5.4,4.1-4.6,6.2s7.3,3,12.2,1S397.9,353.4,396.8,350.9Z" transform="translate(-336.8 -46.6)"/><path class="cls-16" d="M386.9,325.1l0.3,1.4a6.8,6.8,0,0,1,.2,1.4v1.2c0,0.2-.1.4-0.1,0.6v0.6a1,1,0,0,1-.4.5l-0.2.3a0.4,0.4,0,0,1-.2.2l-0.2.2-0.3.2-0.6.4-0.6.4-0.6.3-0.7.3-0.7.3h0l2,0.3,1.9,0.5a5.1,5.1,0,0,1,1.6.9,2.6,2.6,0,0,1,.9,1.4v0.8a1.9,1.9,0,0,1-.1.8,3.5,3.5,0,0,1-.8,1.6l-0.6.7-0.7.7-0.8.6-0.8.6h0l1.8,0.2,1.7,0.3,1.6,0.5a1.3,1.3,0,0,1,.6.4,1,1,0,0,1,.4.5,0.1,0.1,0,0,0,.1.1h0v1a4.7,4.7,0,0,1-.6,1.5,19.3,19.3,0,0,1-2.2,2.8h0l2.4-.2h3.3l0.5,0.2,0.4,0.2,0.4,0.3H396l0.2,0.2,0.4,0.4,0.4,0.5a1.6,1.6,0,0,0,0-.7,2.5,2.5,0,0,0-.2-0.7l-0.4-.6-0.2-.3-0.3-.2-0.6-.3-0.6-.2h-2.5l-1.2.2-1.2.4-1.1.5h0l0.8-.4,0.8-.5,0.7-.6,0.6-.7a4.8,4.8,0,0,0,1-1.7,2,2,0,0,0,.1-1.1c0-.2-0.1-0.4-0.1-0.6h-0.1c0-.1-0.1-0.2-0.1-0.3a3,3,0,0,0-.8-0.8l-0.9-.5-1.9-.4H387l-1.8.4h0a6.4,6.4,0,0,0,1.9-.8l0.9-.6a2.7,2.7,0,0,0,.8-0.7,5.2,5.2,0,0,0,1.2-1.9,5,5,0,0,0,.2-1.2v-0.9c0-.1-0.1-0.2-0.1-0.3a3.7,3.7,0,0,0-.5-1.1,3,3,0,0,0-.8-0.8,5.2,5.2,0,0,0-2-.9,7.5,7.5,0,0,0-2.1-.2,6.4,6.4,0,0,0-2,.3h0l1.5-.2,0.7-.2,0.7-.3,0.7-.3,0.3-.2,0.3-.2,0.3-.3,0.3-.3,0.3-.3,0.2-.3,0.2-.4,0.2-.4a2.4,2.4,0,0,0,.2-0.8c0-.3.1-0.6,0.1-0.8a2.2,2.2,0,0,0-.1-0.8c-0.1-.3-0.1-0.5-0.2-0.8l-0.3-.7-0.5-.6Z" transform="translate(-336.8 -46.6)"/><path class="cls-16" d="M387.7,350.3s-4.6,1.5-7,2.1C380.8,352.4,386.3,351.8,387.7,350.3Z" transform="translate(-336.8 -46.6)"/><path class="cls-16" d="M384.8,342.5s-5.9.6-8.1,1.8C376.6,344.3,383.1,343,384.8,342.5Z" transform="translate(-336.8 -46.6)"/><path class="cls-16" d="M382.1,333.4s-6.5.1-8.7,1C373.4,334.4,380.8,334,382.1,333.4Z" transform="translate(-336.8 -46.6)"/><path class="cls-16" d="M385.5,330.6a9.4,9.4,0,0,0,1-2.3,3.1,3.1,0,0,0-1-2.7c-0.1-.1.1-0.3,0.2-0.2a3.4,3.4,0,0,1,0,5.4C385.6,330.9,385.4,330.7,385.5,330.6Z" transform="translate(-336.8 -46.6)"/><path class="cls-16" d="M386.2,335.9c-0.1-.1-0.1-0.2.1-0.2a2.5,2.5,0,0,1,1,4.5c-0.1.1-.2,0-0.2-0.2a3.4,3.4,0,0,0,.7-2.2A1.9,1.9,0,0,0,386.2,335.9Z" transform="translate(-336.8 -46.6)"/><path class="cls-16" d="M388.9,343.8a2,2,0,0,1,1.3,3.2c-0.1.1-.2,0-0.2-0.1a8.6,8.6,0,0,0,0-1.6,1.6,1.6,0,0,0-1.3-1.2C388.6,344.1,388.7,343.8,388.9,343.8Z" transform="translate(-336.8 -46.6)"/><path class="cls-16" d="M392.9,350.3c2.3-.4,4,2.8,2.5,4.5-0.1.1-.2,0-0.2-0.1,0.6-1.9-.3-3.9-2.4-4.1C392.7,350.6,392.7,350.4,392.9,350.3Z" transform="translate(-336.8 -46.6)"/><path class="cls-21" d="M388.6,335l-7.1.8S386.7,334.2,388.6,335Z" transform="translate(-336.8 -46.6)"/><path class="cls-21" d="M388.9,343.2s-5.6,1.8-8.1,1.6C380.8,344.8,387.2,343.4,388.9,343.2Z" transform="translate(-336.8 -46.6)"/><path class="cls-20" d="M372.3,344.2s26,5.7,25.1-18.2l17.7-67.9-6.9-8.9L368.3,336S368,343.9,372.3,344.2Z" transform="translate(-336.8 -46.6)"/><path class="cls-16" d="M372.5,339.8h0c-4.6-1.9-8.2-10.1-6.3-14.8l38.4-83.5,11.8,4.1-25.9,89.8C388.5,340.1,377.2,341.7,372.5,339.8Z" transform="translate(-336.8 -46.6)"/><path class="cls-7" d="M380.7,289.7s-0.7-12.4-6.2-17.2" transform="translate(-336.8 -46.6)"/></svg>