<svg id="Capa_1" data-name="Capa 1" xmlns="http://www.w3.org/2000/svg" viewBox="0 0 128.8 154.7"><defs><style>.cls-1{fill:#1485a5;}.cls-2{fill:#289eb2;}.cls-3{fill:#0b697f;}.cls-4{fill:#2592a4;}.cls-5{fill:#107f99;}</style></defs><title>logo</title><polygon class="cls-1" points="96.7 95.8 96.8 95.9 64.4 114.6 64.4 154.7 128.8 114.5 128.8 77 64.4 40.1 64.4 74.5 96.7 95.8"/><polygon class="cls-2" points="32.1 58.8 32.1 58.8 64.4 40.1 64.4 0 0 40.1 0 77.7 64.4 114.6 64.4 74.5 32.1 58.8"/><polygon class="cls-3" points="64.4 0 64.4 40.1 95.6 57.9 126.8 37.2 64.4 0"/><polygon class="cls-4" points="36.1 56.5 32.1 58.8 0 40.2 36.1 56.5"/><polygon class="cls-5" points="128.8 76.9 96.7 95.9 92 92.7 128.8 76.9"/><polygon class="cls-3" points="64.4 154.7 2 117.5 33.2 96.7 64.4 114.6 64.4 154.7"/></svg>